<?xml version="1.0" encoding="UTF-8" standalone="no"?>
<!DOCTYPE svg PUBLIC "-//W3C//DTD SVG 1.1//EN"
 "http://www.w3.org/Graphics/SVG/1.1/DTD/svg11.dtd">
<!-- Generated by graphviz version 2.38.0 (20140413.2041)
 -->
<!-- Title: models_diagram Pages: 1 -->
<svg width="558pt" height="520pt"
 viewBox="0.00 0.00 557.55 520.00" xmlns="http://www.w3.org/2000/svg" xmlns:xlink="http://www.w3.org/1999/xlink">
<g id="graph0" class="graph" transform="scale(1 1) rotate(0) translate(4 516)">
<title>models_diagram</title>
<polygon fill="none" stroke="none" points="-4,4 -4,-516 553.55,-516 553.55,4 -4,4"/>
<!-- _diagram_info -->
<g id="node1" class="node"><title>_diagram_info</title>
<text text-anchor="start" x="8" y="-483.6" font-family="Times,serif" font-size="13.00">Models diagram</text>
<text text-anchor="start" x="8" y="-470.6" font-family="Times,serif" font-size="13.00">Date: Apr 19 2016 &#45; 10:00</text>
<text text-anchor="start" x="8" y="-457.6" font-family="Times,serif" font-size="13.00">Migration version: 20160419145010</text>
<text text-anchor="start" x="8" y="-444.6" font-family="Times,serif" font-size="13.00">Generated by RailRoady 1.4.2</text>
<text text-anchor="start" x="8" y="-431.6" font-family="Times,serif" font-size="13.00">http://railroady.prestonlee.com</text>
</g>
<!-- Post -->
<g id="node2" class="node"><title>Post</title>
<path fill="none" stroke="black" d="M161.825,-260.5C161.825,-260.5 385.55,-260.5 385.55,-260.5 391.55,-260.5 397.55,-266.5 397.55,-272.5 397.55,-272.5 397.55,-362.5 397.55,-362.5 397.55,-368.5 391.55,-374.5 385.55,-374.5 385.55,-374.5 161.825,-374.5 161.825,-374.5 155.825,-374.5 149.825,-368.5 149.825,-362.5 149.825,-362.5 149.825,-272.5 149.825,-272.5 149.825,-266.5 155.825,-260.5 161.825,-260.5"/>
<text text-anchor="middle" x="273.688" y="-359.3" font-family="Times,serif" font-size="14.00">Post</text>
<polyline fill="none" stroke="black" points="149.825,-352.5 397.55,-352.5 "/>
<text text-anchor="start" x="157.825" y="-337.3" font-family="Times,serif" font-size="14.00">id :integer</text>
<text text-anchor="start" x="157.825" y="-323.3" font-family="Times,serif" font-size="14.00">user_id :integer</text>
<text text-anchor="start" x="157.825" y="-309.3" font-family="Times,serif" font-size="14.00">image_url :character varying</text>
<text text-anchor="start" x="157.825" y="-295.3" font-family="Times,serif" font-size="14.00">body :text</text>
<text text-anchor="start" x="157.825" y="-281.3" font-family="Times,serif" font-size="14.00">created_at :timestamp without time zone</text>
<text text-anchor="start" x="157.825" y="-267.3" font-family="Times,serif" font-size="14.00">updated_at :timestamp without time zone</text>
</g>
<!-- PostTag -->
<g id="node3" class="node"><title>PostTag</title>
<path fill="none" stroke="black" d="M237.825,-0.5C237.825,-0.5 461.55,-0.5 461.55,-0.5 467.55,-0.5 473.55,-6.5 473.55,-12.5 473.55,-12.5 473.55,-88.5 473.55,-88.5 473.55,-94.5 467.55,-100.5 461.55,-100.5 461.55,-100.5 237.825,-100.5 237.825,-100.5 231.825,-100.5 225.825,-94.5 225.825,-88.5 225.825,-88.5 225.825,-12.5 225.825,-12.5 225.825,-6.5 231.825,-0.5 237.825,-0.5"/>
<text text-anchor="middle" x="349.688" y="-85.3" font-family="Times,serif" font-size="14.00">PostTag</text>
<polyline fill="none" stroke="black" points="225.825,-78.5 473.55,-78.5 "/>
<text text-anchor="start" x="233.825" y="-63.3" font-family="Times,serif" font-size="14.00">id :integer</text>
<text text-anchor="start" x="233.825" y="-49.3" font-family="Times,serif" font-size="14.00">post_id :integer</text>
<text text-anchor="start" x="233.825" y="-35.3" font-family="Times,serif" font-size="14.00">tag_id :integer</text>
<text text-anchor="start" x="233.825" y="-21.3" font-family="Times,serif" font-size="14.00">created_at :timestamp without time zone</text>
<text text-anchor="start" x="233.825" y="-7.3" font-family="Times,serif" font-size="14.00">updated_at :timestamp without time zone</text>
</g>
<!-- Post&#45;&gt;PostTag -->
<g id="edge1" class="edge"><title>Post&#45;&gt;PostTag</title>
<path fill="none" stroke="#2a72da" d="M273.082,-252.13C274.572,-217.163 279.428,-173.698 292.688,-137 296.052,-127.688 300.637,-118.395 305.755,-109.551"/>
<ellipse fill="none" stroke="#2a72da" cx="272.929" cy="-256.371" rx="4" ry="4"/>
<polygon fill="#2a72da" stroke="#2a72da" points="305.835,-109.419 314.871,-103.207 308.43,-105.145 311.025,-100.872 311.025,-100.872 311.025,-100.872 308.43,-105.145 307.179,-98.536 305.835,-109.419 305.835,-109.419"/>
</g>
<!-- Tag -->
<g id="node4" class="node"><title>Tag</title>
<path fill="none" stroke="black" d="M313.825,-137.5C313.825,-137.5 537.55,-137.5 537.55,-137.5 543.55,-137.5 549.55,-143.5 549.55,-149.5 549.55,-149.5 549.55,-211.5 549.55,-211.5 549.55,-217.5 543.55,-223.5 537.55,-223.5 537.55,-223.5 313.825,-223.5 313.825,-223.5 307.825,-223.5 301.825,-217.5 301.825,-211.5 301.825,-211.5 301.825,-149.5 301.825,-149.5 301.825,-143.5 307.825,-137.5 313.825,-137.5"/>
<text text-anchor="middle" x="425.688" y="-208.3" font-family="Times,serif" font-size="14.00">Tag</text>
<polyline fill="none" stroke="black" points="301.825,-201.5 549.55,-201.5 "/>
<text text-anchor="start" x="309.825" y="-186.3" font-family="Times,serif" font-size="14.00">id :integer</text>
<text text-anchor="start" x="309.825" y="-172.3" font-family="Times,serif" font-size="14.00">name :character varying</text>
<text text-anchor="start" x="309.825" y="-158.3" font-family="Times,serif" font-size="14.00">created_at :timestamp without time zone</text>
<text text-anchor="start" x="309.825" y="-144.3" font-family="Times,serif" font-size="14.00">updated_at :timestamp without time zone</text>
</g>
<!-- Post&#45;&gt;Tag -->
<g id="edge2" class="edge"><title>Post&#45;&gt;Tag</title>
<path fill="none" stroke="#61bc0e" d="M344.35,-253.741C353.152,-245.923 362.051,-238.02 370.57,-230.454"/>
<polygon fill="#61bc0e" stroke="#61bc0e" points="344.306,-253.78 333.841,-257.056 340.567,-257.1 336.829,-260.421 336.829,-260.421 336.829,-260.421 340.567,-257.1 339.817,-263.785 344.306,-253.78 344.306,-253.78"/>
<polygon fill="#61bc0e" stroke="#61bc0e" points="370.796,-230.253 381.261,-226.976 374.534,-226.932 378.273,-223.612 378.273,-223.612 378.273,-223.612 374.534,-226.932 375.285,-220.247 370.796,-230.253 370.796,-230.253"/>
</g>
<!-- Tag&#45;&gt;PostTag -->
<g id="edge3" class="edge"><title>Tag&#45;&gt;PostTag</title>
<path fill="none" stroke="#1fdc18" d="M396.472,-130.295C392.439,-123.501 388.265,-116.472 384.147,-109.537"/>
<ellipse fill="none" stroke="#1fdc18" cx="398.55" cy="-133.794" rx="4.00002" ry="4.00002"/>
<polygon fill="#1fdc18" stroke="#1fdc18" points="384.082,-109.426 382.846,-98.5305 381.529,-105.127 378.976,-100.828 378.976,-100.828 378.976,-100.828 381.529,-105.127 375.107,-103.125 384.082,-109.426 384.082,-109.426"/>
</g>
<!-- User -->
<g id="node5" class="node"><title>User</title>
<path fill="none" stroke="black" d="M237.825,-411.5C237.825,-411.5 461.55,-411.5 461.55,-411.5 467.55,-411.5 473.55,-417.5 473.55,-423.5 473.55,-423.5 473.55,-499.5 473.55,-499.5 473.55,-505.5 467.55,-511.5 461.55,-511.5 461.55,-511.5 237.825,-511.5 237.825,-511.5 231.825,-511.5 225.825,-505.5 225.825,-499.5 225.825,-499.5 225.825,-423.5 225.825,-423.5 225.825,-417.5 231.825,-411.5 237.825,-411.5"/>
<text text-anchor="middle" x="349.688" y="-496.3" font-family="Times,serif" font-size="14.00">User</text>
<polyline fill="none" stroke="black" points="225.825,-489.5 473.55,-489.5 "/>
<text text-anchor="start" x="233.825" y="-474.3" font-family="Times,serif" font-size="14.00">id :integer</text>
<text text-anchor="start" x="233.825" y="-460.3" font-family="Times,serif" font-size="14.00">username :character varying</text>
<text text-anchor="start" x="233.825" y="-446.3" font-family="Times,serif" font-size="14.00">password_digest :character varying</text>
<text text-anchor="start" x="233.825" y="-432.3" font-family="Times,serif" font-size="14.00">created_at :timestamp without time zone</text>
<text text-anchor="start" x="233.825" y="-418.3" font-family="Times,serif" font-size="14.00">updated_at :timestamp without time zone</text>
</g>
<!-- User&#45;&gt;Post -->
<g id="edge4" class="edge"><title>User&#45;&gt;Post</title>
<path fill="none" stroke="#2b4ff4" d="M319.454,-404.011C315.939,-397.443 312.331,-390.702 308.758,-384.025"/>
<ellipse fill="none" stroke="#2b4ff4" cx="321.432" cy="-407.707" rx="4.00002" ry="4.00002"/>
<polygon fill="#2b4ff4" stroke="#2b4ff4" points="308.637,-383.801 307.886,-372.86 306.278,-379.392 303.919,-374.984 303.919,-374.984 303.919,-374.984 306.278,-379.392 299.951,-377.107 308.637,-383.801 308.637,-383.801"/>
</g>
<!-- User&#45;&gt;Tag -->
<g id="edge5" class="edge"><title>User&#45;&gt;Tag</title>
<path fill="none" stroke="#c56918" d="M393.685,-402.473C398.794,-393.625 403.358,-384.325 406.688,-375 423.081,-329.087 427.025,-273.391 427.348,-233.563"/>
<polygon fill="#c56918" stroke="#c56918" points="393.607,-402.603 384.574,-408.821 391.014,-406.879 388.422,-411.154 388.422,-411.154 388.422,-411.154 391.014,-406.879 392.27,-413.487 393.607,-402.603 393.607,-402.603"/>
<polygon fill="#c56918" stroke="#c56918" points="427.348,-233.54 431.856,-223.544 427.352,-228.54 427.356,-223.54 427.356,-223.54 427.356,-223.54 427.352,-228.54 422.856,-223.537 427.348,-233.54 427.348,-233.54"/>
</g>
</g>
</svg>
