<?xml version="1.0" encoding="UTF-8" standalone="no"?>
<!DOCTYPE svg PUBLIC "-//W3C//DTD SVG 1.1//EN"
 "http://www.w3.org/Graphics/SVG/1.1/DTD/svg11.dtd">
<!-- Generated by graphviz version 2.38.0 (20140413.2041)
 -->
<!-- Title: controllers_diagram Pages: 1 -->
<svg width="471pt" height="441pt"
 viewBox="0.00 0.00 470.51 441.00" xmlns="http://www.w3.org/2000/svg" xmlns:xlink="http://www.w3.org/1999/xlink">
<g id="graph0" class="graph" transform="scale(1 1) rotate(0) translate(93.8208 242.5)">
<title>controllers_diagram</title>
<polygon fill="none" stroke="none" points="-93.8208,198.5 -93.8208,-242.5 376.688,-242.5 376.688,198.5 -93.8208,198.5"/>
<!-- _diagram_info -->
<g id="node1" class="node"><title>_diagram_info</title>
<text text-anchor="start" x="173.312" y="-224.1" font-family="Times,serif" font-size="13.00">Controllers diagram</text>
<text text-anchor="start" x="173.312" y="-211.1" font-family="Times,serif" font-size="13.00">Date: Apr 19 2016 &#45; 10:00</text>
<text text-anchor="start" x="173.312" y="-198.1" font-family="Times,serif" font-size="13.00">Migration version: 20160419145010</text>
<text text-anchor="start" x="173.312" y="-185.1" font-family="Times,serif" font-size="13.00">Generated by RailRoady 1.4.2</text>
<text text-anchor="start" x="173.312" y="-172.1" font-family="Times,serif" font-size="13.00">http://railroady.prestonlee.com</text>
</g>
<!-- ApplicationController -->
<g id="node2" class="node"><title>ApplicationController</title>
<path fill="none" stroke="black" d="M-77.8208,-136C-77.8208,-136 37.8208,-136 37.8208,-136 43.8208,-136 49.8208,-142 49.8208,-148 49.8208,-148 49.8208,-216 49.8208,-216 49.8208,-222 43.8208,-228 37.8208,-228 37.8208,-228 -77.8208,-228 -77.8208,-228 -83.8208,-228 -89.8208,-222 -89.8208,-216 -89.8208,-216 -89.8208,-148 -89.8208,-148 -89.8208,-142 -83.8208,-136 -77.8208,-136"/>
<text text-anchor="middle" x="-20" y="-212.8" font-family="Times,serif" font-size="14.00">ApplicationController</text>
<polyline fill="none" stroke="black" points="-89.8208,-206 49.8208,-206 "/>
<polyline fill="none" stroke="black" points="-89.8208,-182 49.8208,-182 "/>
<polyline fill="none" stroke="black" points="-89.8208,-158 49.8208,-158 "/>
<text text-anchor="start" x="-81.8208" y="-142.8" font-family="Times,serif" font-size="14.00">_layout</text>
</g>
<!-- PostsController -->
<g id="node3" class="node"><title>PostsController</title>
<path fill="none" stroke="black" d="M87.4414,74C87.4414,74 166.559,74 166.559,74 172.559,74 178.559,68 178.559,62 178.559,62 178.559,-116 178.559,-116 178.559,-122 172.559,-128 166.559,-128 166.559,-128 87.4414,-128 87.4414,-128 81.4414,-128 75.4414,-122 75.4414,-116 75.4414,-116 75.4414,62 75.4414,62 75.4414,68 81.4414,74 87.4414,74"/>
<text text-anchor="middle" x="127" y="-112.8" font-family="Times,serif" font-size="14.00">PostsController</text>
<polyline fill="none" stroke="black" points="75.4414,-106 178.559,-106 "/>
<text text-anchor="start" x="83.4414" y="-90.8" font-family="Times,serif" font-size="14.00">index</text>
<text text-anchor="start" x="83.4414" y="-76.8" font-family="Times,serif" font-size="14.00">destroy</text>
<text text-anchor="start" x="83.4414" y="-62.8" font-family="Times,serif" font-size="14.00">edit</text>
<text text-anchor="start" x="83.4414" y="-48.8" font-family="Times,serif" font-size="14.00">create</text>
<text text-anchor="start" x="83.4414" y="-34.8" font-family="Times,serif" font-size="14.00">new</text>
<text text-anchor="start" x="83.4414" y="-20.8" font-family="Times,serif" font-size="14.00">show</text>
<text text-anchor="start" x="83.4414" y="-6.8" font-family="Times,serif" font-size="14.00">update</text>
<polyline fill="none" stroke="black" points="75.4414,-0 178.559,-0 "/>
<polyline fill="none" stroke="black" points="75.4414,24 178.559,24 "/>
<text text-anchor="start" x="83.4414" y="39.2" font-family="Times,serif" font-size="14.00">_layout</text>
<text text-anchor="start" x="83.4414" y="53.2" font-family="Times,serif" font-size="14.00">post_params</text>
<text text-anchor="start" x="83.4414" y="67.2" font-family="Times,serif" font-size="14.00">set_post</text>
</g>
<!-- TagsController -->
<g id="node4" class="node"><title>TagsController</title>
<path fill="none" stroke="black" d="M87.1094,194C87.1094,194 162.891,194 162.891,194 168.891,194 174.891,188 174.891,182 174.891,182 174.891,114 174.891,114 174.891,108 168.891,102 162.891,102 162.891,102 87.1094,102 87.1094,102 81.1094,102 75.1094,108 75.1094,114 75.1094,114 75.1094,182 75.1094,182 75.1094,188 81.1094,194 87.1094,194"/>
<text text-anchor="middle" x="125" y="117.2" font-family="Times,serif" font-size="14.00">TagsController</text>
<polyline fill="none" stroke="black" points="75.1094,124 174.891,124 "/>
<polyline fill="none" stroke="black" points="75.1094,148 174.891,148 "/>
<polyline fill="none" stroke="black" points="75.1094,172 174.891,172 "/>
<text text-anchor="start" x="83.1094" y="187.2" font-family="Times,serif" font-size="14.00">_layout</text>
</g>
<!-- UsersController -->
<g id="node5" class="node"><title>UsersController</title>
<path fill="none" stroke="black" d="M-47.7139,104C-47.7139,104 33.7139,104 33.7139,104 39.7139,104 45.7139,98 45.7139,92 45.7139,92 45.7139,-86 45.7139,-86 45.7139,-92 39.7139,-98 33.7139,-98 33.7139,-98 -47.7139,-98 -47.7139,-98 -53.7139,-98 -59.7139,-92 -59.7139,-86 -59.7139,-86 -59.7139,92 -59.7139,92 -59.7139,98 -53.7139,104 -47.7139,104"/>
<text text-anchor="middle" x="-7" y="-82.8" font-family="Times,serif" font-size="14.00">UsersController</text>
<polyline fill="none" stroke="black" points="-59.7139,-76 45.7139,-76 "/>
<text text-anchor="start" x="-51.7139" y="-60.8" font-family="Times,serif" font-size="14.00">index</text>
<text text-anchor="start" x="-51.7139" y="-46.8" font-family="Times,serif" font-size="14.00">destroy</text>
<text text-anchor="start" x="-51.7139" y="-32.8" font-family="Times,serif" font-size="14.00">edit</text>
<text text-anchor="start" x="-51.7139" y="-18.8" font-family="Times,serif" font-size="14.00">create</text>
<text text-anchor="start" x="-51.7139" y="-4.8" font-family="Times,serif" font-size="14.00">new</text>
<text text-anchor="start" x="-51.7139" y="9.2" font-family="Times,serif" font-size="14.00">show</text>
<text text-anchor="start" x="-51.7139" y="23.2" font-family="Times,serif" font-size="14.00">update</text>
<polyline fill="none" stroke="black" points="-59.7139,30 45.7139,30 "/>
<polyline fill="none" stroke="black" points="-59.7139,54 45.7139,54 "/>
<text text-anchor="start" x="-51.7139" y="69.2" font-family="Times,serif" font-size="14.00">_layout</text>
<text text-anchor="start" x="-51.7139" y="83.2" font-family="Times,serif" font-size="14.00">set_user</text>
<text text-anchor="start" x="-51.7139" y="97.2" font-family="Times,serif" font-size="14.00">user_params</text>
</g>
</g>
</svg>
