<?xml version="1.0" encoding="UTF-8" standalone="no"?>
<!DOCTYPE svg PUBLIC "-//W3C//DTD SVG 1.1//EN"
 "http://www.w3.org/Graphics/SVG/1.1/DTD/svg11.dtd">
<!-- Generated by graphviz version 2.38.0 (20140413.2041)
 -->
<!-- Title: models_diagram Pages: 1 -->
<svg width="315pt" height="297pt"
 viewBox="0.00 0.00 314.69 297.00" xmlns="http://www.w3.org/2000/svg" xmlns:xlink="http://www.w3.org/1999/xlink">
<g id="graph0" class="graph" transform="scale(1 1) rotate(0) translate(4 293)">
<title>models_diagram</title>
<polygon fill="none" stroke="none" points="-4,4 -4,-293 310.688,-293 310.688,4 -4,4"/>
<!-- _diagram_info -->
<g id="node1" class="node"><title>_diagram_info</title>
<text text-anchor="start" x="8" y="-274.6" font-family="Times,serif" font-size="13.00">Models diagram</text>
<text text-anchor="start" x="8" y="-261.6" font-family="Times,serif" font-size="13.00">Date: Apr 19 2016 &#45; 10:00</text>
<text text-anchor="start" x="8" y="-248.6" font-family="Times,serif" font-size="13.00">Migration version: 20160419145010</text>
<text text-anchor="start" x="8" y="-235.6" font-family="Times,serif" font-size="13.00">Generated by RailRoady 1.4.2</text>
<text text-anchor="start" x="8" y="-222.6" font-family="Times,serif" font-size="13.00">http://railroady.prestonlee.com</text>
</g>
<!-- Post -->
<g id="node2" class="node"><title>Post</title>
<ellipse fill="none" stroke="black" cx="224.688" cy="-162" rx="27" ry="18"/>
<text text-anchor="middle" x="224.688" y="-157.8" font-family="Times,serif" font-size="14.00">Post</text>
</g>
<!-- PostTag -->
<g id="node3" class="node"><title>PostTag</title>
<ellipse fill="none" stroke="black" cx="251.688" cy="-18" rx="38.4535" ry="18"/>
<text text-anchor="middle" x="251.688" y="-13.8" font-family="Times,serif" font-size="14.00">PostTag</text>
</g>
<!-- Post&#45;&gt;PostTag -->
<g id="edge1" class="edge"><title>Post&#45;&gt;PostTag</title>
<path fill="none" stroke="#5b7146" d="M229.455,-135.929C234.247,-110.725 241.611,-71.9942 246.536,-46.0947"/>
<ellipse fill="none" stroke="#5b7146" cx="228.692" cy="-139.942" rx="4.00001" ry="4.00001"/>
<polygon fill="#5b7146" stroke="#5b7146" points="246.551,-46.0133 252.84,-37.0299 247.485,-41.1013 248.419,-36.1893 248.419,-36.1893 248.419,-36.1893 247.485,-41.1013 243.999,-35.3487 246.551,-46.0133 246.551,-46.0133"/>
</g>
<!-- Tag -->
<g id="node4" class="node"><title>Tag</title>
<ellipse fill="none" stroke="black" cx="279.688" cy="-90" rx="27" ry="18"/>
<text text-anchor="middle" x="279.688" y="-85.8" font-family="Times,serif" font-size="14.00">Tag</text>
</g>
<!-- Post&#45;&gt;Tag -->
<g id="edge2" class="edge"><title>Post&#45;&gt;Tag</title>
<path fill="none" stroke="#9b1141" d="M242.86,-137.872C248.877,-130.213 255.571,-121.694 261.584,-114.041"/>
<polygon fill="#9b1141" stroke="#9b1141" points="242.8,-137.948 233.083,-143.031 239.711,-141.879 236.622,-145.811 236.622,-145.811 236.622,-145.811 239.711,-141.879 240.16,-148.591 242.8,-137.948 242.8,-137.948"/>
<polygon fill="#9b1141" stroke="#9b1141" points="261.599,-114.023 271.315,-108.94 264.688,-110.091 267.777,-106.159 267.777,-106.159 267.777,-106.159 264.688,-110.091 264.238,-103.379 261.599,-114.023 261.599,-114.023"/>
</g>
<!-- Tag&#45;&gt;PostTag -->
<g id="edge3" class="edge"><title>Tag&#45;&gt;PostTag</title>
<path fill="none" stroke="#7db889" d="M269.999,-64.7779C267.505,-58.544 264.81,-51.8046 262.273,-45.4634"/>
<ellipse fill="none" stroke="#7db889" cx="271.567" cy="-68.6971" rx="4.00001" ry="4.00001"/>
<polygon fill="#7db889" stroke="#7db889" points="262.184,-45.241 262.648,-34.2849 260.327,-40.5986 258.47,-35.9562 258.47,-35.9562 258.47,-35.9562 260.327,-40.5986 254.292,-37.6275 262.184,-45.241 262.184,-45.241"/>
</g>
<!-- User -->
<g id="node5" class="node"><title>User</title>
<ellipse fill="none" stroke="black" cx="252.688" cy="-252.5" rx="27" ry="18"/>
<text text-anchor="middle" x="252.688" y="-248.3" font-family="Times,serif" font-size="14.00">User</text>
</g>
<!-- User&#45;&gt;Post -->
<g id="edge4" class="edge"><title>User&#45;&gt;Post</title>
<path fill="none" stroke="#ec2413" d="M244.794,-226.55C241.129,-214.965 236.769,-201.185 233.047,-189.422"/>
<ellipse fill="none" stroke="#ec2413" cx="246.082" cy="-230.623" rx="4.00001" ry="4.00001"/>
<polygon fill="#ec2413" stroke="#ec2413" points="232.991,-189.245 234.265,-178.354 231.483,-184.478 229.975,-179.711 229.975,-179.711 229.975,-179.711 231.483,-184.478 225.685,-181.069 232.991,-189.245 232.991,-189.245"/>
</g>
<!-- User&#45;&gt;Tag -->
<g id="edge5" class="edge"><title>User&#45;&gt;Tag</title>
<path fill="none" stroke="#68cc43" d="M257.251,-224.372C262.23,-194.776 270.153,-147.678 275.13,-118.095"/>
<polygon fill="#68cc43" stroke="#68cc43" points="257.236,-224.462 251.14,-233.577 256.407,-229.393 255.577,-234.324 255.577,-234.324 255.577,-234.324 256.407,-229.393 260.015,-235.07 257.236,-224.462 257.236,-224.462"/>
<polygon fill="#68cc43" stroke="#68cc43" points="275.16,-117.914 281.257,-108.799 275.99,-112.984 276.819,-108.053 276.819,-108.053 276.819,-108.053 275.99,-112.984 272.381,-107.306 275.16,-117.914 275.16,-117.914"/>
</g>
</g>
</svg>
